<?xml version="1.0" encoding="UTF-8"?>
<!DOCTYPE svg PUBLIC "-//W3C//DTD SVG 1.1//EN" "http://www.w3.org/Graphics/SVG/1.1/DTD/svg11.dtd">
<!-- Creator: CorelDRAW -->
<svg xmlns="http://www.w3.org/2000/svg" xml:space="preserve" width="54.1667mm" height="54.1667mm" version="1.1" style="shape-rendering:geometricPrecision; text-rendering:geometricPrecision; image-rendering:optimizeQuality; fill-rule:evenodd; clip-rule:evenodd"
viewBox="0 0 1280.88 1280.88"
 xmlns:xlink="http://www.w3.org/1999/xlink"
 xmlns:xodm="http://www.corel.com/coreldraw/odm/2003">
 <defs>
  <style type="text/css">
   <![CDATA[
    .fil13 {fill:none}
    .fil8 {fill:#373535;fill-rule:nonzero}
    .fil10 {fill:#373535;fill-rule:nonzero}
    .fil9 {fill:#0C4A99;fill-rule:nonzero}
    .fil12 {fill:#1B872F;fill-rule:nonzero}
    .fil11 {fill:#E46F07;fill-rule:nonzero}
    .fil1 {fill:url(#id0)}
    .fil7 {fill:url(#id1)}
    .fil5 {fill:url(#id2)}
    .fil3 {fill:url(#id3)}
    .fil2 {fill:url(#id4)}
    .fil4 {fill:url(#id5)}
    .fil6 {fill:url(#id6)}
    .fil0 {fill:url(#id7)}
   ]]>
  </style>
  <linearGradient id="id0" gradientUnits="userSpaceOnUse" x1="499.75" y1="647.12" x2="763.62" y2="499.62">
   <stop offset="0" style="stop-opacity:1; stop-color:#46484D"/>
   <stop offset="1" style="stop-opacity:1; stop-color:#A3A6AD"/>
  </linearGradient>
  <linearGradient id="id1" gradientUnits="userSpaceOnUse" x1="523.82" y1="489.04" x2="751.33" y2="383.86">
   <stop offset="0" style="stop-opacity:1; stop-color:#FFA238"/>
   <stop offset="1" style="stop-opacity:1; stop-color:#FFD857"/>
  </linearGradient>
  <linearGradient id="id2" gradientUnits="userSpaceOnUse" x1="654.56" y1="742.41" x2="883.82" y2="712.07">
   <stop offset="0" style="stop-opacity:1; stop-color:#1A4F24"/>
   <stop offset="1" style="stop-opacity:1; stop-color:#C7EF2D"/>
  </linearGradient>
  <linearGradient id="id3" gradientUnits="userSpaceOnUse" x1="407.23" y1="589.79" x2="622.21" y2="784.57">
   <stop offset="0" style="stop-opacity:1; stop-color:#0B4595"/>
   <stop offset="1" style="stop-opacity:1; stop-color:#22B5F9"/>
  </linearGradient>
  <radialGradient id="id4" gradientUnits="userSpaceOnUse" gradientTransform="matrix(0.878494 0.760673 -9.52301E-001 1.12628 691 -460)" cx="495.18" cy="662.74" r="97.41" fx="495.18" fy="662.74">
   <stop offset="0" style="stop-opacity:1; stop-color:#22B5F9"/>
   <stop offset="1" style="stop-opacity:1; stop-color:#0B4595"/>
  </radialGradient>
  <radialGradient id="id5" gradientUnits="userSpaceOnUse" gradientTransform="matrix(0.017993 3.54428 -7.01672E-001 -3.03018E-002 1234 -2044)" cx="773.53" cy="676.79" r="139.7" fx="773.53" fy="676.79">
   <stop offset="0" style="stop-opacity:1; stop-color:#C7EF2D"/>
   <stop offset="1" style="stop-opacity:1; stop-color:#1A4F24"/>
  </radialGradient>
  <radialGradient id="id6" gradientUnits="userSpaceOnUse" gradientTransform="matrix(0.0677638 1.16852 -1.39027E+000 0.177013 1182 -433)" cx="658.3" cy="408.67" r="135.43" fx="658.3" fy="408.67">
   <stop offset="0" style="stop-opacity:1; stop-color:#FFAA33"/>
   <stop offset="1" style="stop-opacity:1; stop-color:#E06500"/>
  </radialGradient>
  <radialGradient id="id7" gradientUnits="userSpaceOnUse" gradientTransform="matrix(0.0845516 1.4913 -2.14696E+000 0.206124 1771 -548)" cx="657.68" cy="544.55" r="162.18" fx="657.68" fy="544.55">
   <stop offset="0" style="stop-opacity:1; stop-color:#BFCBE3"/>
   <stop offset="1" style="stop-opacity:1; stop-color:#3D4452"/>
  </radialGradient>
 </defs>
 <g id="Layer_x0020_1">
  <metadata id="CorelCorpID_0Corel-Layer"/>
  <g id="_105553127037248">
   <path class="fil0" d="M494.6 669.66l146.84 -254.34 162.2 280.94 -162.2 0 0 -0.07 -162.16 0 15.32 -26.53zm129.16 -72.12l0.01 -80.83 -32.78 56.78 -33.33 57.73 66.1 -33.68zm35.35 -80.85l-0.01 80.85 66.11 33.63 -66.1 -114.48zm46.17 144.11l-63.85 -32.49 -63.88 32.56 63.9 -0 0 -0.07 63.83 0z"/>
   <path class="fil1" d="M494.6 669.66l146.84 -254.34 162.2 280.94 -162.2 0 0 -0.07 -162.16 0 15.32 -26.53zm129.16 -72.12l0.01 -80.83 -66.11 114.51 66.1 -33.68zm35.35 -80.85l-0.01 80.85 66.11 33.63 -66.1 -114.48zm46.17 144.11l-63.85 -32.49 -63.88 32.56 63.9 -0 0 -0.07 63.83 0zm-63.83 -236.05l-153.99 266.75 158.72 -0 0 0.05 149.3 0 -154.03 -266.79zm-12.96 91.97l-0.01 83.73c-27.61,14.1 -55.24,28.15 -82.87,42.22l82.88 -143.54 -0 17.58zm25.9 80.83l0.01 -98.45 82.85 143.5 -82.87 -42.15 0 -2.9zm-10.81 26.56l81.42 41.43 -78.82 0 0 0.05 -88.28 0 83.54 -42.57 2.14 1.09z"/>
   <polygon class="fil2" points="626.81,701.75 593.7,763.01 525.71,763.01 525.71,763.08 363.55,763.08 444.59,622.72 444.57,622.71 503.2,518.35 525.18,552.38 475.33,640.16 475.26,640.24 424.81,727.61 525.71,727.61 525.71,727.68 572.56,727.68 586.57,701.75 "/>
   <path class="fil3" d="M626.81 701.75l-33.12 61.26 -67.99 0 0 0.07 -162.16 0 81.04 -140.36 -0.02 -0.01 58.63 -104.36 21.98 34.03 -49.86 87.78 -0.07 0.07 -50.44 87.38 100.9 0 0 0.07 46.85 -0 14.01 -25.93 40.24 0zm-35.94 56.55l28.01 -51.82 -29.51 0 -14 25.91 -54.4 0 0 -0.05 -104.34 0c34.61,-59.92 68.86,-119.64 103.02,-179.8l-16.19 -25.06 -52.48 93.4 0.06 0.03 -79.34 137.43 149.26 0 0 -0.05 69.9 -0z"/>
   <polygon class="fil4" points="727.35,553.01 791.81,552.71 913.22,763.01 633.83,763.02 651.38,727.68 851.96,727.68 771.4,588.14 747.7,588.25 "/>
   <path class="fil5" d="M727.35 553.01l64.45 -0.3 121.42 210.3 -279.39 0.01 17.55 -35.33 200.58 -0 -80.56 -139.54 -23.7 0.11 -20.35 -35.24zm61.73 4.42l-53.6 0.25 14.92 25.85 23.71 -0.11 86.01 148.97 -205.82 0.01 -12.87 25.91 263.62 -0.01 -115.97 -200.87z"/>
   <polygon class="fil6" points="734.45,524.14 636.71,354.85 557.26,492.46 574.47,520.22 554.42,554.94 516.05,493.06 636.71,284.07 774.69,523.06 "/>
   <path class="fil7" d="M734.45 524.14l-97.74 -169.29 -79.45 137.61 17.21 27.75 -20.05 34.72 -38.37 -61.87 120.66 -208.99 137.98 238.99 -40.24 1.08zm-93.66 -171.66l96.35 166.87 29.51 -0.79 -129.94 -225.05 -115.17 199.47 32.73 52.77 14.7 -25.46 -17.21 -27.75 84.95 -147.13 4.08 7.08z"/>
   <path class="fil8" d="M220.47 941.59l18.79 0c3.8,0 7.14,0.43 10,1.29 2.87,0.86 5.35,2.02 7.45,3.46 2.1,1.44 3.86,3.11 5.25,4.98 1.4,1.88 2.5,3.8 3.31,5.78 0.81,1.98 1.39,3.96 1.75,5.93 0.35,1.98 0.53,3.8 0.53,5.48 0,3.45 -0.63,6.78 -1.9,10 -1.27,3.22 -3.15,6.08 -5.63,8.6 -2.49,2.51 -5.57,4.53 -9.24,6.05 -3.68,1.52 -7.92,2.28 -12.74,2.28l-17.57 0 0 -53.85zm7.3 47.01l9.2 0c3.09,0 6.02,-0.42 8.78,-1.25 2.76,-0.84 5.19,-2.1 7.26,-3.77 2.08,-1.67 3.73,-3.76 4.95,-6.28 1.22,-2.51 1.82,-5.44 1.82,-8.78 0,-1.73 -0.28,-3.74 -0.84,-6.05 -0.56,-2.31 -1.61,-4.5 -3.15,-6.58 -1.55,-2.08 -3.69,-3.84 -6.43,-5.29 -2.74,-1.44 -6.29,-2.17 -10.65,-2.17l-10.95 0 0 40.16zm338.55 -35.37c-1.52,-1.98 -3.45,-3.5 -5.78,-4.56 -2.33,-1.06 -4.74,-1.6 -7.23,-1.6 -3.04,0 -5.79,0.57 -8.25,1.71 -2.46,1.14 -4.56,2.7 -6.31,4.68 -1.75,1.98 -3.1,4.3 -4.07,6.96 -0.96,2.66 -1.44,5.51 -1.44,8.56 0,2.84 0.46,5.53 1.37,8.06 0.91,2.53 2.23,4.77 3.96,6.69 1.72,1.92 3.83,3.45 6.31,4.56 2.49,1.11 5.3,1.67 8.44,1.67 3.09,0 5.81,-0.63 8.14,-1.9 2.33,-1.27 4.31,-3.04 5.93,-5.33l6.16 4.64c-0.41,0.56 -1.12,1.36 -2.13,2.4 -1.01,1.04 -2.36,2.08 -4.03,3.12 -1.67,1.04 -3.69,1.95 -6.05,2.74 -2.36,0.79 -5.08,1.18 -8.18,1.18 -4.26,0 -8.1,-0.81 -11.52,-2.43 -3.42,-1.62 -6.34,-3.75 -8.75,-6.39 -2.41,-2.63 -4.24,-5.61 -5.51,-8.94 -1.27,-3.32 -1.9,-6.68 -1.9,-10.08 0,-4.16 0.69,-8 2.05,-11.52 1.37,-3.52 3.28,-6.56 5.74,-9.13 2.46,-2.56 5.41,-4.55 8.86,-5.97 3.45,-1.42 7.25,-2.13 11.41,-2.13 3.55,0 7.04,0.69 10.46,2.05 3.42,1.37 6.22,3.47 8.4,6.31l-6.08 4.64zm-288.27 -11.64l34.76 0 0 6.85 -27.46 0 0 16.05 25.56 0 0 6.85 -25.56 0 0 17.26 28.83 0 0 6.85 -36.13 0 0 -53.85zm48.07 42.59c1.32,1.98 3.01,3.44 5.06,4.37 2.05,0.94 4.17,1.41 6.35,1.41 1.22,0 2.46,-0.19 3.72,-0.57 1.27,-0.38 2.42,-0.95 3.46,-1.71 1.04,-0.76 1.89,-1.7 2.55,-2.81 0.66,-1.12 0.99,-2.41 0.99,-3.88 0,-2.08 -0.66,-3.66 -1.98,-4.75 -1.32,-1.09 -2.95,-2.01 -4.91,-2.74 -1.95,-0.73 -4.08,-1.44 -6.39,-2.13 -2.31,-0.69 -4.44,-1.64 -6.39,-2.85 -1.95,-1.22 -3.59,-2.85 -4.91,-4.91 -1.31,-2.05 -1.98,-4.83 -1.98,-8.33 0,-1.57 0.34,-3.24 1.03,-5.02 0.69,-1.77 1.76,-3.4 3.23,-4.87 1.47,-1.47 3.36,-2.7 5.67,-3.69 2.31,-0.99 5.08,-1.48 8.33,-1.48 2.94,0 5.76,0.4 8.44,1.22 2.69,0.81 5.04,2.46 7.07,4.95l-5.93 5.4c-0.91,-1.42 -2.21,-2.56 -3.88,-3.42 -1.67,-0.86 -3.58,-1.29 -5.71,-1.29 -2.03,0 -3.71,0.27 -5.06,0.8 -1.35,0.53 -2.42,1.22 -3.23,2.05 -0.81,0.84 -1.38,1.74 -1.71,2.7 -0.33,0.96 -0.49,1.85 -0.49,2.66 0,2.28 0.66,4.03 1.98,5.25 1.32,1.22 2.96,2.21 4.91,2.97 1.95,0.76 4.08,1.44 6.39,2.05 2.31,0.61 4.44,1.45 6.39,2.54 1.95,1.09 3.59,2.56 4.91,4.41 1.32,1.85 1.98,4.4 1.98,7.65 0,2.58 -0.49,4.92 -1.48,7 -0.99,2.08 -2.32,3.83 -3.99,5.25 -1.67,1.42 -3.65,2.51 -5.93,3.27 -2.28,0.76 -4.72,1.14 -7.3,1.14 -3.45,0 -6.72,-0.61 -9.81,-1.83 -3.09,-1.22 -5.55,-3.09 -7.38,-5.63l6.01 -5.17zm40.69 -42.59l7.3 0 0 53.85 -7.3 0 0 -53.85zm67.01 23.73l0 26.54c-1.32,0.81 -2.81,1.52 -4.49,2.13 -1.67,0.61 -3.41,1.13 -5.21,1.56 -1.8,0.43 -3.63,0.75 -5.48,0.95 -1.85,0.2 -3.59,0.31 -5.21,0.31 -4.56,0 -8.63,-0.76 -12.21,-2.28 -3.57,-1.52 -6.59,-3.58 -9.05,-6.16 -2.46,-2.59 -4.33,-5.59 -5.63,-9.01 -1.29,-3.42 -1.94,-7.04 -1.94,-10.84 0,-4.01 0.7,-7.73 2.09,-11.18 1.4,-3.45 3.32,-6.44 5.78,-8.97 2.46,-2.53 5.41,-4.53 8.86,-5.97 3.45,-1.44 7.23,-2.17 11.33,-2.17 4.97,0 9.03,0.62 12.17,1.86 3.14,1.24 5.78,2.96 7.91,5.14l-5.17 5.55c-2.23,-2.13 -4.59,-3.61 -7.08,-4.45 -2.48,-0.83 -5.1,-1.25 -7.83,-1.25 -3.09,0 -5.88,0.57 -8.37,1.71 -2.48,1.14 -4.61,2.67 -6.39,4.6 -1.77,1.93 -3.14,4.2 -4.11,6.81 -0.96,2.61 -1.44,5.39 -1.44,8.33 0,3.04 0.53,5.87 1.6,8.48 1.06,2.61 2.53,4.88 4.41,6.81 1.88,1.92 4.08,3.43 6.62,4.52 2.53,1.09 5.3,1.64 8.29,1.64 2.59,0 5.03,-0.24 7.34,-0.72 2.31,-0.48 4.27,-1.18 5.89,-2.09l0 -14.99 -11.94 0 0 -6.84 19.24 0zm13.31 -23.73l9.58 0 29.67 44.27 0.15 0 0 -44.27 7.3 0 0 53.85 -9.28 0 -29.97 -44.27 -0.15 0 0 44.27 -7.3 0 0 -53.85zm159.95 55.22c-4.11,0 -7.88,-0.72 -11.33,-2.17 -3.45,-1.45 -6.4,-3.44 -8.86,-5.97 -2.46,-2.53 -4.39,-5.53 -5.78,-8.97 -1.4,-3.45 -2.09,-7.18 -2.09,-11.18 0,-4.01 0.7,-7.73 2.09,-11.18 1.4,-3.45 3.32,-6.44 5.78,-8.97 2.46,-2.53 5.41,-4.53 8.86,-5.97 3.45,-1.44 7.23,-2.17 11.33,-2.17 4.11,0 7.89,0.72 11.33,2.17 3.45,1.44 6.4,3.44 8.86,5.97 2.46,2.53 4.39,5.53 5.78,8.97 1.4,3.45 2.1,7.18 2.1,11.18 0,4 -0.7,7.73 -2.1,11.18 -1.39,3.45 -3.32,6.44 -5.78,8.97 -2.46,2.53 -5.41,4.53 -8.86,5.97 -3.45,1.44 -7.23,2.17 -11.33,2.17zm0 -6.85c3.09,0 5.88,-0.57 8.37,-1.71 2.48,-1.14 4.61,-2.67 6.39,-4.6 1.78,-1.93 3.15,-4.2 4.11,-6.81 0.96,-2.61 1.44,-5.39 1.44,-8.33 0,-2.94 -0.48,-5.72 -1.44,-8.33 -0.96,-2.61 -2.33,-4.88 -4.11,-6.81 -1.77,-1.93 -3.9,-3.46 -6.39,-4.6 -2.49,-1.14 -5.28,-1.71 -8.37,-1.71 -3.09,0 -5.88,0.57 -8.37,1.71 -2.48,1.14 -4.61,2.67 -6.39,4.6 -1.77,1.93 -3.14,4.2 -4.11,6.81 -0.96,2.61 -1.44,5.39 -1.44,8.33 0,2.94 0.48,5.72 1.44,8.33 0.96,2.61 2.33,4.88 4.11,6.81 1.78,1.93 3.91,3.46 6.39,4.6 2.49,1.14 5.27,1.71 8.37,1.71zm38.56 -48.37l9.58 0 29.67 44.27 0.15 0 0 -44.27 7.3 0 0 53.85 -9.28 0 -29.97 -44.27 -0.15 0 0 44.27 -7.3 0 0 -53.85zm62.14 42.59c1.32,1.98 3.01,3.44 5.06,4.37 2.05,0.94 4.17,1.41 6.35,1.41 1.22,0 2.46,-0.19 3.72,-0.57 1.27,-0.38 2.42,-0.95 3.46,-1.71 1.04,-0.76 1.89,-1.7 2.55,-2.81 0.66,-1.12 0.99,-2.41 0.99,-3.88 0,-2.08 -0.66,-3.66 -1.98,-4.75 -1.32,-1.09 -2.95,-2.01 -4.91,-2.74 -1.95,-0.73 -4.08,-1.44 -6.39,-2.13 -2.31,-0.69 -4.44,-1.64 -6.39,-2.85 -1.95,-1.22 -3.59,-2.85 -4.91,-4.91 -1.31,-2.05 -1.98,-4.83 -1.98,-8.33 0,-1.57 0.34,-3.24 1.03,-5.02 0.69,-1.77 1.76,-3.4 3.23,-4.87 1.47,-1.47 3.36,-2.7 5.67,-3.69 2.31,-0.99 5.08,-1.48 8.33,-1.48 2.94,0 5.76,0.4 8.44,1.22 2.69,0.81 5.04,2.46 7.07,4.95l-5.93 5.4c-0.91,-1.42 -2.21,-2.56 -3.88,-3.42 -1.67,-0.86 -3.58,-1.29 -5.71,-1.29 -2.03,0 -3.71,0.27 -5.06,0.8 -1.35,0.53 -2.42,1.22 -3.23,2.05 -0.81,0.84 -1.38,1.74 -1.71,2.7 -0.33,0.96 -0.49,1.85 -0.49,2.66 0,2.28 0.66,4.03 1.98,5.25 1.32,1.22 2.96,2.21 4.91,2.97 1.95,0.76 4.08,1.44 6.39,2.05 2.31,0.61 4.44,1.45 6.39,2.54 1.95,1.09 3.59,2.56 4.91,4.41 1.32,1.85 1.98,4.4 1.98,7.65 0,2.58 -0.49,4.92 -1.48,7 -0.99,2.08 -2.32,3.83 -3.99,5.25 -1.67,1.42 -3.65,2.51 -5.93,3.27 -2.28,0.76 -4.72,1.14 -7.3,1.14 -3.45,0 -6.72,-0.61 -9.81,-1.83 -3.09,-1.22 -5.55,-3.09 -7.38,-5.63l6.01 -5.17zm47.01 -42.59l0 33.01c0,1.67 0.23,3.41 0.68,5.21 0.46,1.8 1.22,3.46 2.28,4.98 1.07,1.52 2.46,2.76 4.18,3.72 1.73,0.96 3.85,1.45 6.39,1.45 2.53,0 4.67,-0.48 6.39,-1.45 1.72,-0.96 3.12,-2.2 4.18,-3.72 1.06,-1.52 1.83,-3.18 2.28,-4.98 0.46,-1.8 0.69,-3.54 0.69,-5.21l0 -33.01 7.3 0 0 34.15c0,3.15 -0.53,6 -1.6,8.56 -1.07,2.56 -2.53,4.78 -4.41,6.66 -1.88,1.88 -4.08,3.32 -6.62,4.33 -2.53,1.01 -5.27,1.52 -8.21,1.52 -2.94,0 -5.68,-0.51 -8.21,-1.52 -2.54,-1.01 -4.74,-2.46 -6.62,-4.33 -1.88,-1.88 -3.35,-4.09 -4.41,-6.66 -1.07,-2.56 -1.6,-5.41 -1.6,-8.56l0 -34.15 7.3 0zm47.24 0l7.3 0 0 47.01 24.72 0 0 6.85 -32.02 0 0 -53.85zm43.73 6.85l-17.34 0 0 -6.85 41.99 0 0 6.85 -17.34 0 0 47.01 -7.3 0 0 -47.01zm42.29 -6.85l6.62 0 23.05 53.85 -8.52 0 -5.4 -13.31 -25.63 0 -5.32 13.31 -8.52 0 23.73 -53.85zm13.08 34.15l-10.04 -24.72 -0.15 0 -10.19 24.72 20.38 0zm23.58 -34.15l9.58 0 29.66 44.27 0.15 0 0 -44.27 7.3 0 0 53.85 -9.28 0 -29.97 -44.27 -0.15 0 0 44.27 -7.3 0 0 -53.85zm71.8 6.85l-17.34 0 0 -6.85 41.99 0 0 6.85 -17.34 0 0 47.01 -7.3 0 0 -47.01zm34 35.75c1.32,1.98 3.01,3.44 5.06,4.37 2.05,0.94 4.17,1.41 6.35,1.41 1.22,0 2.46,-0.19 3.73,-0.57 1.27,-0.38 2.42,-0.95 3.46,-1.71 1.04,-0.76 1.89,-1.7 2.55,-2.81 0.66,-1.12 0.99,-2.41 0.99,-3.88 0,-2.08 -0.66,-3.66 -1.98,-4.75 -1.32,-1.09 -2.95,-2.01 -4.91,-2.74 -1.95,-0.73 -4.08,-1.44 -6.39,-2.13 -2.31,-0.69 -4.44,-1.64 -6.39,-2.85 -1.95,-1.22 -3.59,-2.85 -4.91,-4.91 -1.31,-2.05 -1.98,-4.83 -1.98,-8.33 0,-1.57 0.34,-3.24 1.03,-5.02 0.69,-1.77 1.76,-3.4 3.23,-4.87 1.47,-1.47 3.36,-2.7 5.67,-3.69 2.31,-0.99 5.08,-1.48 8.33,-1.48 2.94,0 5.75,0.4 8.44,1.22 2.69,0.81 5.04,2.46 7.07,4.95l-5.93 5.4c-0.91,-1.42 -2.21,-2.56 -3.88,-3.42 -1.67,-0.86 -3.58,-1.29 -5.7,-1.29 -2.03,0 -3.72,0.27 -5.06,0.8 -1.35,0.53 -2.42,1.22 -3.23,2.05 -0.81,0.84 -1.38,1.74 -1.71,2.7 -0.33,0.96 -0.49,1.85 -0.49,2.66 0,2.28 0.66,4.03 1.98,5.25 1.32,1.22 2.95,2.21 4.91,2.97 1.95,0.76 4.08,1.44 6.39,2.05 2.31,0.61 4.44,1.45 6.39,2.54 1.95,1.09 3.59,2.56 4.91,4.41 1.32,1.85 1.98,4.4 1.98,7.65 0,2.58 -0.49,4.92 -1.48,7 -0.99,2.08 -2.32,3.83 -3.99,5.25 -1.67,1.42 -3.65,2.51 -5.93,3.27 -2.28,0.76 -4.72,1.14 -7.3,1.14 -3.45,0 -6.72,-0.61 -9.81,-1.83 -3.1,-1.22 -5.55,-3.09 -7.38,-5.63l6.01 -5.17z"/>
   <g>
    <polygon class="fil9" points="385.01,820.99 404.97,820.99 404.97,847.17 385.01,847.17 "/>
    <polygon class="fil10" points="246.34,838.29 220.47,838.29 220.47,820.62 292.17,820.62 292.17,838.29 266.31,838.29 266.31,911.27 246.34,911.27 "/>
    <path class="fil10" d="M302.29 820.62l35.08 0c4.61,0 8.98,0.45 13.12,1.34 4.14,0.9 7.77,2.39 10.88,4.48 3.11,2.09 5.59,4.91 7.43,8.45 1.84,3.54 2.75,7.96 2.75,13.25 0,6.4 -1.66,11.84 -4.99,16.33 -3.33,4.48 -8.2,7.32 -14.6,8.51l23.05 38.28 -23.94 0 -18.95 -36.23 -9.86 0 0 36.23 -19.97 0 0 -90.65zm19.97 37.51l11.78 0c1.79,0 3.69,-0.06 5.7,-0.19 2.01,-0.13 3.82,-0.51 5.44,-1.15 1.62,-0.64 2.97,-1.64 4.03,-3.01 1.07,-1.36 1.6,-3.28 1.6,-5.76 0,-2.31 -0.47,-4.14 -1.41,-5.51 -0.94,-1.37 -2.13,-2.41 -3.58,-3.14 -1.45,-0.73 -3.11,-1.22 -4.99,-1.47 -1.88,-0.26 -3.71,-0.38 -5.51,-0.38l-13.06 0 0 20.61z"/>
    <polygon class="fil10" points="448.64,887.07 417.14,887.07 417.14,871.71 448.64,871.71 "/>
    <polygon class="fil10" points="461.83,820.62 523.41,820.62 523.41,839.06 481.8,839.06 481.8,855.96 521.11,855.96 521.11,874.4 481.8,874.4 481.8,892.83 525.72,892.83 525.72,911.27 461.83,911.27 "/>
    <polygon class="fil10" points="542.49,820.62 562.46,820.62 562.46,892.83 599.47,892.83 599.47,911.27 542.49,911.27 "/>
    <polygon class="fil10" points="611.25,820.62 672.83,820.62 672.83,839.06 631.22,839.06 631.22,855.96 670.53,855.96 670.53,874.4 631.22,874.4 631.22,892.83 675.14,892.83 675.14,911.27 611.25,911.27 "/>
    <polygon class="fil10" points="691.14,820.62 721.36,820.62 742.23,879.77 742.49,879.77 763.49,820.62 793.57,820.62 793.57,911.27 773.6,911.27 773.6,841.75 773.34,841.75 749.53,911.27 734.29,911.27 711.37,841.75 711.12,841.75 711.12,911.27 691.14,911.27 "/>
    <polygon class="fil10" points="812.78,820.62 874.37,820.62 874.37,839.06 832.76,839.06 832.76,855.96 872.06,855.96 872.06,874.4 832.76,874.4 832.76,892.83 876.67,892.83 876.67,911.27 812.78,911.27 "/>
    <polygon class="fil10" points="892.68,820.62 919.82,820.62 958.36,883.61 958.62,883.61 958.62,820.62 978.59,820.62 978.59,911.27 952.47,911.27 912.91,846.74 912.65,846.74 912.65,911.27 892.68,911.27 "/>
    <polygon class="fil10" points="1014.57,838.29 988.71,838.29 988.71,820.62 1060.41,820.62 1060.41,838.29 1034.55,838.29 1034.55,911.27 1014.57,911.27 "/>
    <polygon class="fil11" points="385.01,885.09 404.97,885.09 404.97,911.27 385.01,911.27 "/>
    <polygon class="fil12" points="385.01,853.04 404.97,853.04 404.97,879.22 385.01,879.22 "/>
   </g>
  </g>
  <rect class="fil13" x="-0" y="-0" width="1280.88" height="1280.88"/>
 </g>
</svg>
